<svg width="13" height="13" xmlns="http://www.w3.org/2000/svg" xmlns:svg="http://www.w3.org/2000/svg">
 <g class="layer">
  <title>Layer 1</title>
  <path d="m12.03488,0.92716c-0.08782,-0.05437 -0.19775,-0.05915 -0.29036,-0.01314l-3.45082,1.72541l-3.45082,-1.72541c-0.08424,-0.04182 -0.18282,-0.04182 -0.26706,0l-3.58464,1.79232c-0.10097,0.05078 -0.16489,0.15414 -0.16489,0.26706l0,8.96161c0,0.10336 0.05377,0.19955 0.14159,0.25391c0.0478,0.02987 0.10216,0.04481 0.15713,0.04481c0.04541,0 0.09141,-0.01075 0.13383,-0.03166l3.45082,-1.72541l3.45082,1.72541c0.08424,0.04182 0.18341,0.04182 0.26706,0l3.58464,-1.79232c0.10097,-0.05078 0.16489,-0.15414 0.16489,-0.26706l0,-8.96161c0,-0.10336 -0.05377,-0.19955 -0.14159,-0.25391l-0.0006,0l0,-0.00001zm-7.62513,9.03091l-2.9872,1.4936l0,-8.29367l2.9872,-1.4936l0,8.29367zm0.59744,-8.29367l2.9872,1.4936l0,8.29367l-2.9872,-1.4936l0,-8.29367zm6.57185,8.29367l-2.9872,1.4936l0,-8.29367l2.9872,-1.4936l0,8.29367z" fill="#9fa4a8" id="svg_1"/>
 </g>

</svg>