<svg xmlns="http://www.w3.org/2000/svg" width="13" height="13" viewBox="0 0 24 24">
 <g class="layer">
  <title>Layer 1</title>
  <g id="svg_3">
   <path d="m10.0617,1.22131c0,-0.31536 -0.25595,-0.57131 -0.57131,-0.57131s-0.57131,0.25595 -0.57131,0.57131c0,1.49226 0.28794,2.73886 0.51989,3.74093c0.22624,0.9758 0.40334,1.74706 0.14854,2.06928c-0.21253,0.26737 -0.81926,0.42277 -1.80648,0.4639c-0.00229,-0.1851 -0.00457,-0.37249 -0.00457,-0.55988l0,-4.57047c0,-0.31536 -0.25595,-0.57131 -0.57131,-0.57131s-0.57131,0.25595 -0.57131,0.57131l0,4.57047c0,0.18853 -0.00114,0.37478 -0.00457,0.55988c-0.98379,-0.04228 -1.58938,-0.19882 -1.80191,-0.46619c-0.25709,-0.32336 -0.07884,-1.09577 0.14626,-2.07271c0.23081,-0.99979 0.51761,-2.24525 0.51761,-3.73293c0,-0.31536 -0.25595,-0.57131 -0.57131,-0.57131s-0.57131,0.25595 -0.57131,0.57131c0,1.35857 -0.2708,2.53319 -0.4879,3.47699c-0.2948,1.27745 -0.52675,2.28752 0.07313,3.04165c0.44562,0.55988 1.25802,0.83754 2.66573,0.89696c-0.12797,3.18791 -0.58959,5.93019 -0.97237,8.20057c-0.50961,3.02108 -0.84554,5.01609 0.01371,6.03188c0.35535,0.42048 0.8821,0.63415 1.56539,0.63415s1.21003,-0.21367 1.56539,-0.63415c0.85925,-1.01693 0.52332,-3.01423 0.01371,-6.0376c-0.38163,-2.2681 -0.84325,-5.00924 -0.97237,-8.19486c1.41113,-0.05713 2.22354,-0.33364 2.6703,-0.89467c0.59873,-0.75299 0.36564,-1.76077 0.07084,-3.03822c-0.21824,-0.94495 -0.49018,-2.12184 -0.49018,-3.4827l-0.00229,-0.00229zm-2.16412,20.90877c-0.08341,0.09827 -0.24566,0.22967 -0.69243,0.22967s-0.60902,-0.13026 -0.69243,-0.22852c-0.51646,-0.6113 -0.16568,-2.69315 0.24109,-5.10408c0.1474,-0.87068 0.30508,-1.81105 0.45248,-2.81884c0.1474,1.00665 0.30508,1.94359 0.45133,2.81427c0.40677,2.41321 0.75756,4.49735 0.24109,5.10979l-0.00114,-0.00229z" fill="#91979c" id="svg_1"/>
   <path d="m19.06782,16.83176c-0.44905,-2.66344 -1.00665,-5.97704 -1.00779,-9.89736l0,-5.71309c0,-0.25937 -0.17482,-0.48561 -0.42505,-0.55188s-0.51418,0.04342 -0.64215,0.26852c-2.30695,4.03801 -3.44614,10.20473 -3.49413,10.46524c-0.03085,0.16682 0.01485,0.33822 0.1234,0.46847s0.26966,0.20567 0.43877,0.20567l2.55375,0c-0.19996,1.7642 -0.46733,3.35359 -0.705,4.76015c-0.50961,3.02108 -0.84554,5.01609 0.01371,6.03188c0.35535,0.42048 0.8821,0.63415 1.56539,0.63415s1.21003,-0.21367 1.56539,-0.63415c0.85925,-1.01693 0.52332,-3.01423 0.01371,-6.0376zm-4.30881,-5.8982c0.28337,-1.33801 1.00779,-4.44136 2.15841,-7.21792l0,3.21876c0,1.41228 -0.07198,2.74571 -0.18625,3.99916l-1.9733,0l0.00114,0zm3.42214,11.19652c-0.08341,0.09827 -0.24566,0.22967 -0.69243,0.22967s-0.60902,-0.13026 -0.69243,-0.22852c-0.51646,-0.6113 -0.16568,-2.69315 0.24109,-5.10408c0.1474,-0.87068 0.30508,-1.81105 0.45248,-2.81884c0.1474,1.00665 0.30508,1.94474 0.45133,2.81427c0.40677,2.41321 0.75756,4.49735 0.24109,5.10979l-0.00114,-0.00229z" fill="#91979c" id="svg_2"/>
  </g>
 </g>
</svg>